<?xml version="1.0" encoding="UTF-8"?>
<!DOCTYPE svg PUBLIC "-//W3C//DTD SVG 1.1//EN" "http://www.w3.org/Graphics/SVG/1.1/DTD/svg11.dtd">
<svg xmlns="http://www.w3.org/2000/svg" version="1.1" width="512px" height="512px" style="shape-rendering:geometricPrecision; text-rendering:geometricPrecision; image-rendering:optimizeQuality; fill-rule:evenodd; clip-rule:evenodd" xmlns:xlink="http://www.w3.org/1999/xlink">
<g><path style="opacity:1" fill="#ed6300" d="M 193.5,-0.5 C 194.5,-0.5 195.5,-0.5 196.5,-0.5C 222.106,12.3029 247.773,25.1363 273.5,38C 250.656,63.675 227.656,89.175 204.5,114.5C 200.555,76.1542 196.888,37.8208 193.5,-0.5 Z"/></g>
<g><path style="opacity:1" fill="#ed6300" d="M 504.5,-0.5 C 505.5,-0.5 506.5,-0.5 507.5,-0.5C 504.254,37.8683 500.588,76.2017 496.5,114.5C 473.292,89.4601 450.625,63.9601 428.5,38C 453.711,24.8946 479.044,12.0613 504.5,-0.5 Z"/></g>
<g><path style="opacity:0.988" fill="#000000" d="M 368.5,225.5 C 356.5,224.167 344.5,224.167 332.5,225.5C 296.063,196.566 260.063,167.066 224.5,137C 249.025,108.31 274.025,79.9764 299.5,52C 333.5,51.3333 367.5,51.3333 401.5,52C 427.204,80.0354 452.537,108.369 477.5,137C 441.293,166.713 404.959,196.213 368.5,225.5 Z"/></g>
<g><path style="opacity:1" fill="#ed6300" d="M 3.5,129.5 C 36.0902,145.128 68.4235,161.295 100.5,178C 74.624,216.919 48.624,255.753 22.5,294.5C 16.0762,281.317 9.90958,267.984 4,254.5C 3.50001,212.835 3.33334,171.168 3.5,129.5 Z"/></g>
<g><path style="opacity:1" fill="#fefffe" d="M 81.5,151.5 C 82.525,151.897 82.6917,152.563 82,153.5C 81.5357,152.906 81.369,152.239 81.5,151.5 Z"/></g>
<g><path style="opacity:0.974" fill="#000000" d="M 487.5,165.5 C 488.097,165.735 488.43,166.235 488.5,167C 447.242,264.448 405.409,361.614 363,458.5C 324.865,371.403 287.532,284.07 251,196.5C 284.075,223.62 317.242,250.62 350.5,277.5C 396.21,240.113 441.877,202.78 487.5,165.5 Z"/></g>
<g><path style="opacity:0.981" fill="#000000" d="M 154.5,511.5 C 143.167,511.5 131.833,511.5 120.5,511.5C 92.799,449.577 64.799,387.744 36.5,326C 65.8698,281.431 95.3698,236.931 125,192.5C 125.725,191.941 126.558,191.608 127.5,191.5C 136.528,195.431 145.361,199.764 154,204.5C 154.5,306.833 154.667,409.166 154.5,511.5 Z"/></g>
<g><path style="opacity:0.98" fill="#000000" d="M 353.5,511.5 C 335.833,511.5 318.167,511.5 300.5,511.5C 261.498,458.992 222.665,406.326 184,353.5C 183.333,319.5 183.333,285.5 184,251.5C 196,234.833 208,218.167 220,201.5C 265.179,304.536 309.679,407.869 353.5,511.5 Z"/></g>
<g><path style="opacity:1" fill="#efefef" d="M 332.5,225.5 C 344.5,224.167 356.5,224.167 368.5,225.5C 362.571,230.482 356.571,235.482 350.5,240.5C 345.16,236.488 340.16,232.155 335.5,227.5C 335.027,226.094 334.027,225.427 332.5,225.5 Z"/></g>
<g><path style="opacity:0.969" fill="#000000" d="M 264.5,511.5 C 237.5,511.5 210.5,511.5 183.5,511.5C 183.333,475.165 183.5,438.832 184,402.5C 211.051,438.711 237.884,475.044 264.5,511.5 Z"/></g>
</svg>
